<svg xmlns="http://www.w3.org/2000/svg" width="32" height="32" viewBox="0 0 32 32" fill="none">
  <g filter="url(#filter0_d_219_2537)">
    <path d="M28 12C28 15.1826 26.7357 18.2348 24.4853 20.4853C22.2348 22.7357 19.1826 24 16 24C12.8174 24 9.76516 22.7357 7.51472 20.4853C5.26428 18.2348 4 15.1826 4 12C4 8.8174 5.26428 5.76516 7.51472 3.51472C9.76516 1.26428 12.8174 0 16 0C19.1826 0 22.2348 1.26428 24.4853 3.51472C26.7357 5.76516 28 8.8174 28 12ZM19 12C19 11.2044 18.6839 10.4413 18.1213 9.87868C17.5587 9.31607 16.7956 9 16 9C15.2044 9 14.4413 9.31607 13.8787 9.87868C13.3161 10.4413 13 11.2044 13 12C13 12.7956 13.3161 13.5587 13.8787 14.1213C14.4413 14.6839 15.2044 15 16 15C16.7956 15 17.5587 14.6839 18.1213 14.1213C18.6839 13.5587 19 12.7956 19 12ZM10 12C10 10.4087 10.6321 8.88258 11.7574 7.75736C12.8826 6.63214 14.4087 6 16 6C16.1989 6 16.3897 5.92098 16.5303 5.78033C16.671 5.63968 16.75 5.44891 16.75 5.25C16.75 5.05109 16.671 4.86032 16.5303 4.71967C16.3897 4.57902 16.1989 4.5 16 4.5C14.0109 4.5 12.1032 5.29018 10.6967 6.6967C9.29018 8.10322 8.5 10.0109 8.5 12C8.5 12.1989 8.57902 12.3897 8.71967 12.5303C8.86032 12.671 9.05109 12.75 9.25 12.75C9.44891 12.75 9.63968 12.671 9.78033 12.5303C9.92098 12.3897 10 12.1989 10 12ZM23.5 12C23.5 11.8011 23.421 11.6103 23.2803 11.4697C23.1397 11.329 22.9489 11.25 22.75 11.25C22.5511 11.25 22.3603 11.329 22.2197 11.4697C22.079 11.6103 22 11.8011 22 12C22 13.5913 21.3679 15.1174 20.2426 16.2426C19.1174 17.3679 17.5913 18 16 18C15.8011 18 15.6103 18.079 15.4697 18.2197C15.329 18.3603 15.25 18.5511 15.25 18.75C15.25 18.9489 15.329 19.1397 15.4697 19.2803C15.6103 19.421 15.8011 19.5 16 19.5C17.9891 19.5 19.8968 18.7098 21.3033 17.3033C22.7098 15.8968 23.5 13.9891 23.5 12Z" fill="#4D9C7D"/>
  </g>
  <defs>
    <filter id="filter0_d_219_2537" x="0" y="0" width="32" height="32" filterUnits="userSpaceOnUse" color-interpolation-filters="sRGB">
      <feFlood flood-opacity="0" result="BackgroundImageFix"/>
      <feColorMatrix in="SourceAlpha" type="matrix" values="0 0 0 0 0 0 0 0 0 0 0 0 0 0 0 0 0 0 127 0" result="hardAlpha"/>
      <feOffset dy="4"/>
      <feGaussianBlur stdDeviation="2"/>
      <feComposite in2="hardAlpha" operator="out"/>
      <feColorMatrix type="matrix" values="0 0 0 0 0 0 0 0 0 0 0 0 0 0 0 0 0 0 0.25 0"/>
      <feBlend mode="normal" in2="BackgroundImageFix" result="effect1_dropShadow_219_2537"/>
      <feBlend mode="normal" in="SourceGraphic" in2="effect1_dropShadow_219_2537" result="shape"/>
    </filter>
  </defs>
</svg>