<svg width="25" height="26" viewBox="0 0 25 26" fill="none" xmlns="http://www.w3.org/2000/svg">
<circle cx="12.0974" cy="13.3718" r="11.8167" fill="#4D9C7D" fill-opacity="0.6" stroke="#2A2A2A" stroke-width="0.5"/>
<mask id="mask0_198_2531" style="mask-type:luminance" maskUnits="userSpaceOnUse" x="4" y="4" width="17" height="17">
<path d="M20.0308 4.70459H4.03076V20.7046H20.0308V4.70459Z" fill="white"/>
</mask>
<g mask="url(#mask0_198_2531)">
<path d="M14.9526 11.2671C15.6636 12.6323 16.1581 15.329 15.7956 15.7853C14.9661 16.8296 10.8417 17.1421 9.39622 16.2143C8.43047 15.5945 8.36916 12.3917 8.88272 11.5336M15.4689 12.31C15.6501 12.2453 16.0007 12.0726 16.0822 12.4232C16.1636 12.7737 16.1623 12.9918 16.0822 13.3548C16.0385 13.5526 15.9361 13.6117 15.8132 13.6117" stroke="#2A2A2A" stroke-width="0.5625" stroke-linecap="round" stroke-linejoin="round"/>
<path d="M8.54098 12.4757C8.06561 12.3264 7.78561 12.5937 7.95598 13.1843C8.11742 13.7437 8.39667 13.8614 8.54098 13.8298" stroke="#2A2A2A" stroke-width="0.5625" stroke-linecap="round" stroke-linejoin="round"/>
<path d="M11.1558 12.5012C11.3746 12.5012 11.638 12.8567 11.6627 13.423C11.7029 14.342 11.4026 14.6328 11.6627 15.1086C11.8332 15.4204 12.7727 15.4044 13.0283 14.8877C13.2294 14.4813 12.8453 14.1349 12.6163 13.5912C12.3978 13.073 12.2595 12.7543 12.4879 12.4546" stroke="#2A2A2A" stroke-width="0.5625" stroke-linecap="round" stroke-linejoin="round"/>
<path d="M12.0228 16.9376C11.9856 17.1876 11.9683 17.2997 11.9683 17.2997M12.1681 16.926C12.2061 17.1048 12.1793 17.2053 12.2512 17.3267M12.4353 17.2997C12.4353 17.2997 12.3695 17.12 12.3695 16.9189M12.5806 16.8921C12.6194 17.1425 12.7003 17.2637 12.7003 17.2637" stroke="#2A2A2A" stroke-width="0.5625" stroke-linecap="round" stroke-linejoin="round"/>
<path d="M10.4058 16.1285C10.4058 16.1285 10.7613 15.9545 10.8501 15.6563M10.9166 15.7652C10.9307 15.8178 10.4824 16.3465 10.4824 16.3465M11.0444 15.7394C11.0102 16.0013 10.7188 16.3847 10.7188 16.3847M10.8819 16.4565C10.8819 16.4565 11.2113 16.1541 11.2408 15.8105M11.3788 15.7903C11.3788 16.0091 11.2745 16.49 11.2745 16.49M13.0066 15.6868L13.0066 16.4553M11.3267 16.4656C11.3267 16.4656 11.5866 16.1387 11.5866 15.8687M13.2277 16.3449C13.2277 16.3449 13.0382 15.9525 13.0382 15.6824M11.7398 15.8447C11.7584 15.9921 11.5576 16.4517 11.5576 16.4517M13.6257 15.6343C13.6443 15.7817 13.9641 16.1575 13.9641 16.1575M13.2276 15.7075C13.2463 15.855 13.5313 16.3198 13.5313 16.3198M11.886 15.833C11.8488 16.083 11.8077 16.4968 11.8077 16.4968M13.3322 15.6627L13.7303 16.236M12.0313 15.8215C12.0693 16.0002 12.0792 16.3608 12.2618 16.4833M13.8111 15.6578C13.9074 15.8066 14.0889 16.0291 14.3262 16.0877M12.2828 15.7649C12.2828 15.8483 12.1713 16.1332 12.3426 16.4607M12.651 16.4836C12.651 16.4836 12.3426 16.1003 12.3426 15.7649M12.4968 15.7427C12.4968 15.9822 12.8824 16.49 12.8824 16.49M12.9399 16.4532C12.8987 16.3286 12.6989 15.8753 12.7214 15.6744" stroke="#2A2A2A" stroke-width="0.5625" stroke-linecap="round" stroke-linejoin="round"/>
<path d="M8.47138 8.87463C8.19232 9.87706 8.55951 10.3134 8.55951 10.5187C8.55951 10.724 8.82382 9.30744 8.96432 8.52525L8.77945 11.0319L9.39288 8.33406L9.18276 11.3252L9.7877 8.20881C9.72045 9.4065 9.5897 11.7359 9.60438 11.4719C9.61901 11.2079 10.0139 9.13969 10.1972 8.07031L10.0324 11.4719L10.6125 8.20881L10.5268 11.4719L11.0674 8.20881L10.9426 11.6369L11.5293 8.20881L11.4366 11.6369L11.9113 8.37356V11.6369L12.3908 8.58456V11.6369L12.8308 8.74044C12.7819 9.84037 12.8015 11.8862 12.8308 11.6369C12.8601 11.3876 13.1119 9.73625 13.2341 8.87463L13.1837 11.6369L13.6374 9.05206L13.587 11.6369L14.0041 9.19875V11.4326L14.377 9.32294L14.2974 11.4326L14.6727 9.63938L14.719 11.3252L14.911 9.63938L14.9854 10.9675L15.2639 9.89856V11.0319" stroke="#11543A" stroke-opacity="0.5" stroke-width="1.125" stroke-linecap="round" stroke-linejoin="round"/>
<path d="M14.979 11.3698C13.9115 11.9858 9.44759 11.9439 8.72434 11.1306C7.60978 9.87737 8.10884 8.71993 8.83634 8.41968C9.56384 8.11943 10.158 7.54231 12.4401 8.41968C14.7222 9.297 15.7635 9.58581 15.5677 10.8341C15.3718 12.0822 14.0711 12.4379 12.6605 12.1479C11.2498 11.858 9.40447 12.7802 8.93203 11.9439C8.86828 11.8429 8.75978 11.5867 8.83634 11.3698" stroke="#2A2A2A" stroke-width="0.5625" stroke-linecap="round" stroke-linejoin="round"/>
<path d="M15.3389 11.4197C15.5894 10.8702 16.2979 9.66555 17.1283 9.24268" stroke="#11543A" stroke-opacity="0.5" stroke-width="0.5625" stroke-linecap="round" stroke-linejoin="round"/>
<path d="M15.7177 10.986C15.9814 10.9497 16.5957 10.781 16.9437 10.3968C17.3786 9.9164 17.8159 9.41027 17.6993 8.98302C17.5827 8.55571 16.9315 9.04502 16.6218 9.01633C16.3121 8.98765 15.3566 10.5938 15.4709 11.0468" stroke="#11543A" stroke-opacity="0.5" stroke-width="0.5625" stroke-linecap="round" stroke-linejoin="round"/>
<path d="M10.6887 14.1404C10.6434 14.107 10.3678 13.9954 10.2239 13.7554C10.0799 13.5156 10.0704 13.2757 10.2239 13.1702C10.327 13.0993 10.5456 13.2128 10.6887 13.3097M10.7449 13.2681C10.8381 13.1652 11.0024 13.0786 11.1642 13.1702C11.2728 13.2316 11.2602 13.6116 11.1642 13.7555C11.0872 13.8711 10.8396 14.0642 10.7449 14.126M13.324 13.2202C13.1865 13.0891 12.8788 12.8844 12.7483 13.1147C12.5852 13.4026 13.0969 13.9256 13.3851 14.0451M13.4545 14.0799C13.5952 13.9744 13.8901 13.7441 13.9439 13.6673C14.011 13.5714 14.1166 13.1684 13.9439 13.0052C13.7711 12.8421 13.4065 13.0724 13.4065 13.3315" stroke="#11543A" stroke-opacity="0.5" stroke-width="0.5625" stroke-linecap="round" stroke-linejoin="round"/>
<path d="M10.0933 12.2841C10.1331 12.1953 10.2768 12.0253 10.5339 12.0547C10.8551 12.0913 10.9193 12.1465 10.9928 12.2841M12.9781 12.1554C13.0148 12.0514 13.169 11.8543 13.4921 11.8984C13.8152 11.9425 13.9327 12.1248 13.951 12.2105" stroke="#2A2A2A" stroke-width="0.5625" stroke-linecap="round" stroke-linejoin="round"/>
</g>
</svg>
