<svg width="260" height="68" viewBox="0 0 260 68" fill="none" xmlns="http://www.w3.org/2000/svg">
<circle cx="33.5752" cy="34.1445" r="33.5" fill="white"/>
<path d="M32.6 17.1249C32.8348 16.0853 34.316 16.0853 34.5509 17.1249L36.3825 25.2335C36.5347 25.9072 37.3078 26.2274 37.8918 25.8587L44.9206 21.4202C45.8217 20.8511 46.8691 21.8985 46.3001 22.7996L41.8616 29.8284C41.4928 30.4124 41.813 31.1856 42.4868 31.3377L50.5953 33.1694C51.6349 33.4042 51.6349 34.8854 50.5953 35.1202L42.4868 36.9518C41.813 37.104 41.4928 37.8771 41.8616 38.4612L46.3001 45.4899C46.8691 46.391 45.8217 47.4384 44.9206 46.8694L37.8918 42.4309C37.3078 42.0621 36.5347 42.3824 36.3825 43.0561L34.5509 51.1647C34.316 52.2042 32.8348 52.2042 32.6 51.1647L30.7684 43.0561C30.6162 42.3824 29.8431 42.0621 29.2591 42.4309L22.2303 46.8694C21.3292 47.4384 20.2818 46.391 20.8508 45.4899L25.2893 38.4612C25.6581 37.8771 25.3379 37.104 24.6641 36.9518L16.5555 35.1202C15.516 34.8854 15.516 33.4042 16.5555 33.1694L24.6641 31.3377C25.3379 31.1856 25.6581 30.4124 25.2893 29.8284L20.8508 22.7996C20.2818 21.8985 21.3292 20.8511 22.2303 21.4202L29.2591 25.8587C29.8431 26.2274 30.6162 25.9072 30.7684 25.2335L32.6 17.1249Z" fill="#4D9C7D"/>
<circle cx="33.5757" cy="34.1445" r="2.68262" fill="white"/>
<path d="M81.9952 47.145V20.745H102.555V26.065H88.8752V31.425H99.7552V36.425H88.8752V41.825H103.075V47.145H81.9952ZM106.75 47.145V27.145H112.83L113.19 34.025L112.43 33.265C112.696 31.825 113.163 30.625 113.83 29.665C114.523 28.705 115.376 27.985 116.39 27.505C117.43 26.9984 118.59 26.745 119.87 26.745C121.256 26.745 122.456 27.0117 123.47 27.545C124.51 28.0784 125.323 28.865 125.91 29.905C126.496 30.945 126.79 32.2517 126.79 33.825V47.145H119.99V35.625C119.99 34.2384 119.723 33.2784 119.19 32.745C118.656 32.2117 117.976 31.945 117.15 31.945C116.51 31.945 115.91 32.105 115.35 32.425C114.79 32.7184 114.35 33.1984 114.03 33.865C113.71 34.5317 113.55 35.425 113.55 36.545V47.145H106.75ZM139.797 20.785V40.025C139.797 40.985 140.024 41.6784 140.477 42.105C140.957 42.505 141.61 42.705 142.437 42.705C143.077 42.705 143.624 42.6384 144.077 42.505C144.557 42.345 144.984 42.1184 145.357 41.825L146.077 46.025C145.41 46.505 144.57 46.8784 143.557 47.145C142.544 47.4117 141.504 47.545 140.437 47.545C138.917 47.545 137.597 47.3317 136.477 46.905C135.384 46.4784 134.53 45.7984 133.917 44.865C133.33 43.9317 133.024 42.6917 132.997 41.145V22.665L139.797 20.785ZM145.757 27.145V31.985H129.557V27.145H145.757ZM148.898 47.145V27.145H154.898L155.178 31.465C155.685 29.9717 156.431 28.8117 157.418 27.985C158.431 27.1584 159.711 26.745 161.258 26.745C161.765 26.745 162.191 26.785 162.538 26.865C162.911 26.945 163.205 27.0517 163.418 27.185L162.738 32.785C162.471 32.6784 162.125 32.5984 161.698 32.545C161.298 32.465 160.805 32.425 160.218 32.425C159.418 32.425 158.671 32.5984 157.978 32.945C157.285 33.2917 156.725 33.8117 156.298 34.505C155.898 35.1717 155.698 36.025 155.698 37.065V47.145H148.898ZM175.371 26.745C177.478 26.745 179.318 27.1584 180.891 27.985C182.491 28.785 183.731 29.9717 184.611 31.545C185.518 33.0917 185.971 34.9584 185.971 37.145C185.971 39.3317 185.518 41.2117 184.611 42.785C183.731 44.3317 182.491 45.5184 180.891 46.345C179.318 47.145 177.478 47.545 175.371 47.545C173.318 47.545 171.491 47.145 169.891 46.345C168.291 45.5184 167.038 44.3317 166.131 42.785C165.251 41.2117 164.811 39.3317 164.811 37.145C164.811 34.9584 165.251 33.0917 166.131 31.545C167.038 29.9717 168.291 28.785 169.891 27.985C171.491 27.1584 173.318 26.745 175.371 26.745ZM175.371 31.585C174.598 31.585 173.931 31.7717 173.371 32.145C172.811 32.5184 172.384 33.1184 172.091 33.945C171.798 34.7717 171.651 35.8384 171.651 37.145C171.651 38.4517 171.798 39.5184 172.091 40.345C172.384 41.145 172.811 41.745 173.371 42.145C173.931 42.5184 174.598 42.705 175.371 42.705C176.171 42.705 176.851 42.5184 177.411 42.145C177.971 41.745 178.398 41.145 178.691 40.345C178.984 39.5184 179.131 38.4517 179.131 37.145C179.131 35.8384 178.984 34.7717 178.691 33.945C178.398 33.1184 177.971 32.5184 177.411 32.145C176.851 31.7717 176.171 31.585 175.371 31.585ZM189.796 55.545V27.145H195.916L196.276 34.385L195.476 33.545C195.663 32.2117 196.076 31.0384 196.716 30.025C197.356 29.0117 198.183 28.2117 199.196 27.625C200.21 27.0384 201.37 26.745 202.676 26.745C204.33 26.745 205.77 27.1584 206.996 27.985C208.223 28.785 209.17 29.9584 209.836 31.505C210.53 33.025 210.876 34.8784 210.876 37.065C210.876 39.2517 210.53 41.1317 209.836 42.705C209.143 44.2784 208.17 45.4784 206.916 46.305C205.69 47.1317 204.25 47.545 202.596 47.545C200.783 47.545 199.316 47.0117 198.196 45.945C197.076 44.8517 196.33 43.4784 195.956 41.825L196.596 40.865V55.545H189.796ZM200.276 42.545C201.45 42.545 202.37 42.1184 203.036 41.265C203.703 40.385 204.036 39.0117 204.036 37.145C204.036 35.2784 203.703 33.9184 203.036 33.065C202.396 32.185 201.49 31.745 200.316 31.745C199.57 31.745 198.916 31.9584 198.356 32.385C197.796 32.785 197.356 33.385 197.036 34.185C196.743 34.985 196.596 35.9717 196.596 37.145C196.596 38.265 196.73 39.2384 196.996 40.065C197.29 40.865 197.716 41.4784 198.276 41.905C198.836 42.3317 199.503 42.545 200.276 42.545ZM225.839 34.465C225.839 33.5317 225.573 32.7984 225.039 32.265C224.533 31.705 223.839 31.425 222.959 31.425C222.079 31.425 221.319 31.6517 220.679 32.105C220.066 32.5317 219.639 33.305 219.399 34.425L213.639 33.065C214.013 31.145 214.999 29.6117 216.599 28.465C218.199 27.3184 220.453 26.745 223.359 26.745C225.306 26.745 226.959 27.0384 228.319 27.625C229.706 28.185 230.759 29.0384 231.479 30.185C232.226 31.305 232.599 32.6917 232.599 34.345V41.665C232.599 42.705 233.066 43.225 233.999 43.225C234.479 43.225 234.866 43.1717 235.159 43.065L234.759 46.945C233.959 47.3184 232.986 47.505 231.839 47.505C230.799 47.505 229.879 47.345 229.079 47.025C228.279 46.6784 227.653 46.1717 227.199 45.505C226.746 44.8117 226.519 43.945 226.519 42.905V42.665L227.279 42.385C227.279 43.5317 226.933 44.4917 226.239 45.265C225.573 46.0384 224.693 46.6117 223.599 46.985C222.533 47.3584 221.413 47.545 220.239 47.545C218.879 47.545 217.693 47.3317 216.679 46.905C215.666 46.4784 214.879 45.865 214.319 45.065C213.786 44.2384 213.519 43.225 213.519 42.025C213.519 40.585 213.946 39.3984 214.799 38.465C215.679 37.505 217.053 36.8384 218.919 36.465L226.479 34.905L226.439 38.505L222.599 39.305C221.799 39.465 221.199 39.705 220.799 40.025C220.426 40.3184 220.239 40.7717 220.239 41.385C220.239 41.9717 220.453 42.4117 220.879 42.705C221.306 42.9984 221.813 43.145 222.399 43.145C222.853 43.145 223.279 43.0784 223.679 42.945C224.106 42.8117 224.479 42.6117 224.799 42.345C225.119 42.0517 225.373 41.6917 225.559 41.265C225.746 40.8384 225.839 40.3317 225.839 39.745V34.465ZM256.674 27.145L249.394 47.145C248.648 49.2517 247.834 50.9317 246.954 52.185C246.074 53.4384 245.034 54.345 243.834 54.905C242.634 55.465 241.194 55.745 239.514 55.745C238.394 55.745 237.368 55.625 236.434 55.385C235.501 55.145 234.688 54.8117 233.994 54.385L235.354 49.785C235.834 50.1317 236.341 50.3717 236.874 50.505C237.408 50.665 238.088 50.745 238.914 50.745C239.688 50.745 240.314 50.6117 240.794 50.345C241.301 50.0784 241.701 49.5717 241.994 48.825L242.514 47.585L240.194 42.145L234.194 27.145H241.674L244.754 38.545L245.714 42.785L246.834 38.385L249.914 27.145H256.674Z" fill="white"/>
</svg>
