<svg width="41" height="41" viewBox="0 0 41 41" fill="none" xmlns="http://www.w3.org/2000/svg">
<g filter="url(#filter0_d_9_9449)">
<path d="M29.4861 20.597C32.8861 21.627 36.6201 22.757 36.6201 16.457C36.6201 13.2925 35.6817 10.1991 33.9236 7.56791C32.1655 4.93673 29.6667 2.88597 26.7431 1.67497C23.8194 0.463964 20.6024 0.14711 17.4987 0.764474C14.395 1.38184 11.5441 2.90569 9.30642 5.14333C7.06878 7.38097 5.54492 10.2319 4.92756 13.3356C4.3102 16.4393 4.62705 19.6564 5.83805 22.58C7.04905 25.5036 9.09981 28.0025 11.731 29.7606C14.3622 31.5187 17.4556 32.457 20.6201 32.457C24.6121 32.457 24.2721 29.449 23.9181 26.297C23.6701 24.095 23.4141 21.823 24.6201 20.457C25.5501 19.403 27.4601 19.983 29.4861 20.597ZM20.6201 10.457C20.2262 10.457 19.8361 10.3794 19.4721 10.2287C19.1081 10.0779 18.7774 9.85694 18.4988 9.57836C18.2202 9.29978 17.9993 8.96907 17.8485 8.60509C17.6977 8.24111 17.6201 7.851 17.6201 7.45704C17.6201 7.06307 17.6977 6.67297 17.8485 6.30899C17.9993 5.94501 18.2202 5.61429 18.4988 5.33572C18.7774 5.05714 19.1081 4.83616 19.4721 4.6854C19.8361 4.53464 20.2262 4.45704 20.6201 4.45704C21.4158 4.45704 22.1788 4.77311 22.7414 5.33572C23.3041 5.89833 23.6201 6.66139 23.6201 7.45704C23.6201 8.25269 23.3041 9.01575 22.7414 9.57836C22.1788 10.141 21.4158 10.457 20.6201 10.457ZM29.6201 16.457C28.8245 16.457 28.0614 16.141 27.4988 15.5784C26.9362 15.0158 26.6201 14.2527 26.6201 13.457C26.6201 12.6614 26.9362 11.8983 27.4988 11.3357C28.0614 10.7731 28.8245 10.457 29.6201 10.457C30.4158 10.457 31.1788 10.7731 31.7414 11.3357C32.3041 11.8983 32.6201 12.6614 32.6201 13.457C32.6201 14.2527 32.3041 15.0158 31.7414 15.5784C31.1788 16.141 30.4158 16.457 29.6201 16.457ZM14.6201 13.457C14.6201 13.851 14.5425 14.2411 14.3918 14.6051C14.241 14.9691 14.02 15.2998 13.7414 15.5784C13.4629 15.8569 13.1322 16.0779 12.7682 16.2287C12.4042 16.3794 12.0141 16.457 11.6201 16.457C11.2262 16.457 10.8361 16.3794 10.4721 16.2287C10.1081 16.0779 9.77738 15.8569 9.4988 15.5784C9.22023 15.2998 8.99925 14.9691 8.84849 14.6051C8.69772 14.2411 8.62012 13.851 8.62012 13.457C8.62012 12.6614 8.93619 11.8983 9.4988 11.3357C10.0614 10.7731 10.8245 10.457 11.6201 10.457C12.4158 10.457 13.1788 10.7731 13.7414 11.3357C14.3041 11.8983 14.6201 12.6614 14.6201 13.457ZM15.6201 26.457C14.8245 26.457 14.0614 26.141 13.4988 25.5784C12.9362 25.0158 12.6201 24.2527 12.6201 23.457C12.6201 22.6614 12.9362 21.8983 13.4988 21.3357C14.0614 20.7731 14.8245 20.457 15.6201 20.457C16.4158 20.457 17.1788 20.7731 17.7414 21.3357C18.3041 21.8983 18.6201 22.6614 18.6201 23.457C18.6201 24.2527 18.3041 25.0158 17.7414 25.5784C17.1788 26.141 16.4158 26.457 15.6201 26.457Z" fill="#4D9C7D"/>
</g>
<defs>
<filter id="filter0_d_9_9449" x="0.620117" y="0.457031" width="40" height="40" filterUnits="userSpaceOnUse" color-interpolation-filters="sRGB">
<feFlood flood-opacity="0" result="BackgroundImageFix"/>
<feColorMatrix in="SourceAlpha" type="matrix" values="0 0 0 0 0 0 0 0 0 0 0 0 0 0 0 0 0 0 127 0" result="hardAlpha"/>
<feOffset dy="4"/>
<feGaussianBlur stdDeviation="2"/>
<feComposite in2="hardAlpha" operator="out"/>
<feColorMatrix type="matrix" values="0 0 0 0 0.301961 0 0 0 0 0.611765 0 0 0 0 0.490196 0 0 0 0.3 0"/>
<feBlend mode="normal" in2="BackgroundImageFix" result="effect1_dropShadow_9_9449"/>
<feBlend mode="normal" in="SourceGraphic" in2="effect1_dropShadow_9_9449" result="shape"/>
</filter>
</defs>
</svg>
