<svg width="41" height="41" viewBox="0 0 41 41" fill="none" xmlns="http://www.w3.org/2000/svg">
<g filter="url(#filter0_d_9_9447)">
<path d="M20.8594 22.9316C19.2681 22.9316 17.742 22.2995 16.6167 21.1743C15.4915 20.0491 14.8594 18.5229 14.8594 16.9316C14.8594 15.3403 15.4915 13.8142 16.6167 12.689C17.742 11.5638 19.2681 10.9316 20.8594 10.9316C22.4507 10.9316 23.9768 11.5638 25.102 12.689C26.2272 13.8142 26.8594 15.3403 26.8594 16.9316C26.8594 18.5229 26.2272 20.0491 25.102 21.1743C23.9768 22.2995 22.4507 22.9316 20.8594 22.9316ZM20.8594 24.9316C22.9811 24.9316 25.0159 24.0888 26.5162 22.5885C28.0165 21.0882 28.8594 19.0534 28.8594 16.9316C28.8594 14.8099 28.0165 12.7751 26.5162 11.2748C25.0159 9.7745 22.9811 8.93164 20.8594 8.93164C18.7376 8.93164 16.7028 9.7745 15.2025 11.2748C13.7022 12.7751 12.8594 14.8099 12.8594 16.9316C12.8594 19.0534 13.7022 21.0882 15.2025 22.5885C16.7028 24.0888 18.7376 24.9316 20.8594 24.9316ZM20.8594 0.931641C21.1246 0.931641 21.3789 1.037 21.5665 1.22453C21.754 1.41207 21.8594 1.66642 21.8594 1.93164V5.93164C21.8594 6.19686 21.754 6.45121 21.5665 6.63875C21.3789 6.82628 21.1246 6.93164 20.8594 6.93164C20.5942 6.93164 20.3398 6.82628 20.1523 6.63875C19.9647 6.45121 19.8594 6.19686 19.8594 5.93164V1.93164C19.8594 1.66642 19.9647 1.41207 20.1523 1.22453C20.3398 1.037 20.5942 0.931641 20.8594 0.931641V0.931641ZM20.8594 26.9316C21.1246 26.9316 21.3789 27.037 21.5665 27.2245C21.754 27.4121 21.8594 27.6664 21.8594 27.9316V31.9316C21.8594 32.1969 21.754 32.4512 21.5665 32.6387C21.3789 32.8263 21.1246 32.9316 20.8594 32.9316C20.5942 32.9316 20.3398 32.8263 20.1523 32.6387C19.9647 32.4512 19.8594 32.1969 19.8594 31.9316V27.9316C19.8594 27.6664 19.9647 27.4121 20.1523 27.2245C20.3398 27.037 20.5942 26.9316 20.8594 26.9316ZM36.8594 16.9316C36.8594 17.1969 36.754 17.4512 36.5665 17.6387C36.3789 17.8263 36.1246 17.9316 35.8594 17.9316H31.8594C31.5942 17.9316 31.3398 17.8263 31.1523 17.6387C30.9647 17.4512 30.8594 17.1969 30.8594 16.9316C30.8594 16.6664 30.9647 16.4121 31.1523 16.2245C31.3398 16.037 31.5942 15.9316 31.8594 15.9316H35.8594C36.1246 15.9316 36.3789 16.037 36.5665 16.2245C36.754 16.4121 36.8594 16.6664 36.8594 16.9316ZM10.8594 16.9316C10.8594 17.1969 10.754 17.4512 10.5665 17.6387C10.3789 17.8263 10.1246 17.9316 9.85938 17.9316H5.85938C5.59416 17.9316 5.3398 17.8263 5.15227 17.6387C4.96473 17.4512 4.85938 17.1969 4.85938 16.9316C4.85938 16.6664 4.96473 16.4121 5.15227 16.2245C5.3398 16.037 5.59416 15.9316 5.85938 15.9316H9.85938C10.1246 15.9316 10.3789 16.037 10.5665 16.2245C10.754 16.4121 10.8594 16.6664 10.8594 16.9316ZM32.1734 5.61764C32.3608 5.80517 32.4662 6.05948 32.4662 6.32464C32.4662 6.58981 32.3608 6.84411 32.1734 7.03164L29.3454 9.86164C29.2524 9.95449 29.142 10.0281 29.0206 10.0783C28.8992 10.1285 28.7691 10.1543 28.6377 10.1542C28.3723 10.154 28.1179 10.0484 27.9304 9.86064C27.8375 9.76766 27.7639 9.65731 27.7137 9.53588C27.6635 9.41446 27.6377 9.28433 27.6378 9.15293C27.638 8.88757 27.7436 8.63315 27.9314 8.44564L30.7594 5.61764C30.9469 5.43017 31.2012 5.32485 31.4664 5.32485C31.7315 5.32485 31.9858 5.43017 32.1734 5.61764ZM13.7874 24.0036C13.9748 24.1912 14.0802 24.4455 14.0802 24.7106C14.0802 24.9758 13.9748 25.2301 13.7874 25.4176L10.9594 28.2456C10.7708 28.4278 10.5182 28.5286 10.256 28.5263C9.99378 28.524 9.74296 28.4189 9.55756 28.2335C9.37215 28.0481 9.26698 27.7972 9.2647 27.535C9.26242 27.2728 9.36322 27.0202 9.54537 26.8316L12.3734 24.0036C12.5609 23.8162 12.8152 23.7109 13.0804 23.7109C13.3455 23.7109 13.5998 23.8162 13.7874 24.0036ZM32.1734 28.2456C31.9858 28.4331 31.7315 28.5384 31.4664 28.5384C31.2012 28.5384 30.9469 28.4331 30.7594 28.2456L27.9314 25.4176C27.7492 25.229 27.6484 24.9764 27.6507 24.7142C27.653 24.452 27.7581 24.2012 27.9436 24.0158C28.129 23.8304 28.3798 23.7252 28.642 23.723C28.9042 23.7207 29.1568 23.8215 29.3454 24.0036L32.1734 26.8316C32.3608 27.0192 32.4662 27.2735 32.4662 27.5386C32.4662 27.8038 32.3608 28.0581 32.1734 28.2456ZM13.7874 9.86164C13.5998 10.0491 13.3455 10.1544 13.0804 10.1544C12.8152 10.1544 12.5609 10.0491 12.3734 9.86164L9.54537 7.03164C9.44986 6.93939 9.37368 6.82905 9.32127 6.70705C9.26886 6.58504 9.24128 6.45382 9.24012 6.32104C9.23897 6.18826 9.26427 6.05658 9.31455 5.93369C9.36483 5.81079 9.43909 5.69914 9.53298 5.60525C9.62687 5.51135 9.73852 5.4371 9.86142 5.38682C9.98432 5.33654 10.116 5.31124 10.2488 5.31239C10.3816 5.31354 10.5128 5.34113 10.6348 5.39354C10.7568 5.44595 10.8671 5.52213 10.9594 5.61764L13.7874 8.44564C13.8805 8.53853 13.9544 8.64888 14.0048 8.77037C14.0552 8.89186 14.0812 9.02211 14.0812 9.15364C14.0812 9.28518 14.0552 9.41542 14.0048 9.53691C13.9544 9.6584 13.8805 9.76875 13.7874 9.86164Z" fill="#4D9C7D"/>
</g>
<defs>
<filter id="filter0_d_9_9447" x="0.859375" y="0.931641" width="40" height="40" filterUnits="userSpaceOnUse" color-interpolation-filters="sRGB">
<feFlood flood-opacity="0" result="BackgroundImageFix"/>
<feColorMatrix in="SourceAlpha" type="matrix" values="0 0 0 0 0 0 0 0 0 0 0 0 0 0 0 0 0 0 127 0" result="hardAlpha"/>
<feOffset dy="4"/>
<feGaussianBlur stdDeviation="2"/>
<feComposite in2="hardAlpha" operator="out"/>
<feColorMatrix type="matrix" values="0 0 0 0 0.301961 0 0 0 0 0.611765 0 0 0 0 0.490196 0 0 0 0.3 0"/>
<feBlend mode="normal" in2="BackgroundImageFix" result="effect1_dropShadow_9_9447"/>
<feBlend mode="normal" in="SourceGraphic" in2="effect1_dropShadow_9_9447" result="shape"/>
</filter>
</defs>
</svg>
