<svg width="41" height="37" viewBox="0 0 41 37" fill="none" xmlns="http://www.w3.org/2000/svg">
<g filter="url(#filter0_d_9_9444)">
<path d="M20.6201 19.9316C21.681 19.9316 22.6984 19.5102 23.4485 18.7601C24.1987 18.0099 24.6201 16.9925 24.6201 15.9316C24.6201 14.8708 24.1987 13.8534 23.4485 13.1032C22.6984 12.3531 21.681 11.9316 20.6201 11.9316C19.5593 11.9316 18.5418 12.3531 17.7917 13.1032C17.0415 13.8534 16.6201 14.8708 16.6201 15.9316C16.6201 16.9925 17.0415 18.0099 17.7917 18.7601C18.5418 19.5102 19.5593 19.9316 20.6201 19.9316Z" fill="#4D9C7D"/>
<path d="M23.6201 4.93164C21.8201 4.93164 20.1201 5.36364 18.6181 6.13164C20.0713 5.8347 21.5724 5.86474 23.0126 6.2196C24.4527 6.57446 25.7959 7.24524 26.9448 8.18335C28.0937 9.12146 29.0196 10.3034 29.6552 11.6435C30.2909 12.9836 30.6205 14.4484 30.6201 15.9316C30.6201 19.3795 29.2505 22.6861 26.8125 25.124C24.3745 27.562 21.0679 28.9316 17.6201 28.9316C14.1723 28.9316 10.8657 27.562 8.42773 25.124C5.98976 22.6861 4.62012 19.3795 4.62012 15.9316C4.62012 15.6664 4.72547 15.4121 4.91301 15.2245C5.10055 15.037 5.3549 14.9316 5.62012 14.9316C5.88533 14.9316 6.13969 15.037 6.32722 15.2245C6.51476 15.4121 6.62012 15.6664 6.62012 15.9316C6.61959 17.8148 7.10252 19.6665 8.02265 21.3095C8.94278 22.9525 10.2693 24.3318 11.8752 25.3153C13.4811 26.2988 15.3126 26.8536 17.1943 26.9265C19.076 26.9994 20.9449 26.5879 22.6221 25.7316C21.1689 26.0286 19.6678 25.9985 18.2277 25.6437C16.7875 25.2888 15.4443 24.618 14.2954 23.6799C13.1465 22.7418 12.2207 21.5599 11.585 20.2198C10.9493 18.8796 10.6198 17.4149 10.6201 15.9316C10.6201 12.4838 11.9898 9.17723 14.4277 6.73925C16.8657 4.30128 20.1723 2.93164 23.6201 2.93164C27.0679 2.93164 30.3745 4.30128 32.8125 6.73925C35.2505 9.17723 36.6201 12.4838 36.6201 15.9316C36.6201 16.1969 36.5148 16.4512 36.3272 16.6387C36.1397 16.8263 35.8853 16.9316 35.6201 16.9316C35.3549 16.9316 35.1005 16.8263 34.913 16.6387C34.7255 16.4512 34.6201 16.1969 34.6201 15.9316C34.6201 14.4871 34.3356 13.0567 33.7828 11.7221C33.23 10.3875 32.4197 9.17491 31.3983 8.15347C30.3768 7.13202 29.1642 6.32177 27.8296 5.76897C26.4951 5.21616 25.0647 4.93164 23.6201 4.93164ZM20.6201 7.93164C18.4984 7.93164 16.4636 8.7745 14.9633 10.2748C13.463 11.7751 12.6201 13.8099 12.6201 15.9316C12.6201 18.0534 13.463 20.0882 14.9633 21.5885C16.4636 23.0888 18.4984 23.9316 20.6201 23.9316C22.7418 23.9316 24.7767 23.0888 26.277 21.5885C27.7773 20.0882 28.6201 18.0534 28.6201 15.9316C28.6201 13.8099 27.7773 11.7751 26.277 10.2748C24.7767 8.7745 22.7418 7.93164 20.6201 7.93164Z" fill="#4D9C7D"/>
</g>
<defs>
<filter id="filter0_d_9_9444" x="0.620117" y="0.931641" width="40" height="40" filterUnits="userSpaceOnUse" color-interpolation-filters="sRGB">
<feFlood flood-opacity="0" result="BackgroundImageFix"/>
<feColorMatrix in="SourceAlpha" type="matrix" values="0 0 0 0 0 0 0 0 0 0 0 0 0 0 0 0 0 0 127 0" result="hardAlpha"/>
<feOffset dy="4"/>
<feGaussianBlur stdDeviation="2"/>
<feComposite in2="hardAlpha" operator="out"/>
<feColorMatrix type="matrix" values="0 0 0 0 0.301961 0 0 0 0 0.611765 0 0 0 0 0.490196 0 0 0 0.3 0"/>
<feBlend mode="normal" in2="BackgroundImageFix" result="effect1_dropShadow_9_9444"/>
<feBlend mode="normal" in="SourceGraphic" in2="effect1_dropShadow_9_9444" result="shape"/>
</filter>
</defs>
</svg>
