<svg width="41" height="36" viewBox="0 0 41 36" fill="none" xmlns="http://www.w3.org/2000/svg">
<g id="BsEye" filter="url(#filter0_d_9_9451)">
<path id="Vector" d="M36.8594 16.5322C36.8594 16.5322 30.8594 5.53223 20.8594 5.53223C10.8594 5.53223 4.85938 16.5322 4.85938 16.5322C4.85938 16.5322 10.8594 27.5322 20.8594 27.5322C30.8594 27.5322 36.8594 16.5322 36.8594 16.5322ZM7.20537 16.5322C8.1724 15.0625 9.28466 13.6936 10.5254 12.4462C13.0994 9.86823 16.6194 7.53223 20.8594 7.53223C25.0994 7.53223 28.6174 9.86823 31.1954 12.4462C32.4361 13.6936 33.5483 15.0625 34.5154 16.5322C34.3994 16.7062 34.2714 16.8982 34.1254 17.1082C33.4554 18.0682 32.4654 19.3482 31.1954 20.6182C28.6174 23.1962 25.0974 25.5322 20.8594 25.5322C16.6194 25.5322 13.1014 23.1962 10.5234 20.6182C9.28267 19.3708 8.17042 18.002 7.20338 16.5322H7.20537Z" fill="#4D9C7D"/>
<path id="Vector_2" d="M20.8594 11.5322C19.5333 11.5322 18.2615 12.059 17.3238 12.9967C16.3862 13.9344 15.8594 15.2061 15.8594 16.5322C15.8594 17.8583 16.3862 19.1301 17.3238 20.0678C18.2615 21.0054 19.5333 21.5322 20.8594 21.5322C22.1855 21.5322 23.4572 21.0054 24.3949 20.0678C25.3326 19.1301 25.8594 17.8583 25.8594 16.5322C25.8594 15.2061 25.3326 13.9344 24.3949 12.9967C23.4572 12.059 22.1855 11.5322 20.8594 11.5322ZM13.8594 16.5322C13.8594 14.6757 14.5969 12.8952 15.9096 11.5825C17.2224 10.2697 19.0029 9.53223 20.8594 9.53223C22.7159 9.53223 24.4964 10.2697 25.8091 11.5825C27.1219 12.8952 27.8594 14.6757 27.8594 16.5322C27.8594 18.3887 27.1219 20.1692 25.8091 21.482C24.4964 22.7947 22.7159 23.5322 20.8594 23.5322C19.0029 23.5322 17.2224 22.7947 15.9096 21.482C14.5969 20.1692 13.8594 18.3887 13.8594 16.5322Z" fill="#4D9C7D"/>
</g>
<defs>
<filter id="filter0_d_9_9451" x="0.859375" y="0.532227" width="40" height="40" filterUnits="userSpaceOnUse" color-interpolation-filters="sRGB">
<feFlood flood-opacity="0" result="BackgroundImageFix"/>
<feColorMatrix in="SourceAlpha" type="matrix" values="0 0 0 0 0 0 0 0 0 0 0 0 0 0 0 0 0 0 127 0" result="hardAlpha"/>
<feOffset dy="4"/>
<feGaussianBlur stdDeviation="2"/>
<feComposite in2="hardAlpha" operator="out"/>
<feColorMatrix type="matrix" values="0 0 0 0 0.301961 0 0 0 0 0.611765 0 0 0 0 0.490196 0 0 0 0.3 0"/>
<feBlend mode="normal" in2="BackgroundImageFix" result="effect1_dropShadow_9_9451"/>
<feBlend mode="normal" in="SourceGraphic" in2="effect1_dropShadow_9_9451" result="shape"/>
</filter>
</defs>
</svg>
