<svg width="100" height="100" viewBox="0 0 100 100" fill="none" xmlns="http://www.w3.org/2000/svg">
<path d="M35.8133 13.655C45.312 13.2878 57.1189 18.459 58.5536 28.8573L58.5697 28.9559C58.703 29.8175 58.652 30.7539 58.5511 31.6161C57.8069 37.9681 52.0487 42.9686 45.8739 43.8643C45.8378 44.0272 45.9495 46.1207 45.9627 46.4061C46.3652 46.5517 46.9806 46.5467 47.4175 46.6104C51.3676 47.1873 56.2206 49.5904 58.2466 53.0889L58.2816 53.1501C58.4656 53.1637 58.8231 52.9793 59.007 52.9156C59.8212 52.6337 60.1548 52.9148 60.1566 52.1053C60.1611 49.7851 60.2544 47.6781 61.7602 45.7773C62.3342 45.0525 63.8897 43.7668 64.2239 43.0664C64.4241 42.647 64.4187 42.034 64.4869 41.5703C64.8841 38.8645 65.5786 37.719 67.5044 36.0106C67.652 35.8795 67.6952 35.685 67.7973 35.5223C68.2061 34.8717 69.137 34.4573 69.7266 33.9828C71.7426 32.3603 73.4514 30.2647 74.7336 28.0162C75.9636 27.9487 76.0328 29.0542 76.3731 29.9997C77.3487 32.7111 79.0142 39.8734 78.085 42.6932C78.0622 42.7625 78.6844 43.3506 78.7862 43.459C80.6497 45.4411 81.2745 47.9793 81.3519 50.609L81.4509 52.3848C85.2028 53.7225 86.3353 56.0493 86.8775 59.94L87.0233 61.3884C87.1466 62.2693 87.1108 63.1828 87.11 64.0704C87.1056 69.0425 86.102 76.3512 82.5522 79.8956C79.7673 82.4137 75.0225 82.9145 71.4573 82.9175C67.0176 82.9212 62.3478 81.9345 59.1134 78.6564C57.9112 77.4379 57.1558 75.9578 56.4391 74.4279C49.1634 81.1007 39.1825 82.8753 29.7353 80.1507C23.2327 78.2754 18.7633 74.6432 17.2527 67.9626L16.5672 64.2037C15.5965 57.7601 16.547 52.9001 21.9741 49.0514C23.7084 47.8214 25.7208 46.802 27.842 46.467C28.1225 46.4228 28.3869 46.4228 28.6683 46.3592C28.6681 46.0681 28.72 44.09 28.6677 43.9915C28.6148 43.8923 28.0855 43.8375 27.9762 43.8054C21.8067 41.9873 15.9977 36.7179 15.5282 30.0292C14.7726 19.2618 26.5986 13.7545 35.8133 13.655ZM57.0253 58.254C56.9202 59.2065 56.9303 60.137 56.8931 61.0917L56.8175 67.1367C56.8423 67.914 57.2609 70.0578 57.0083 70.6995C56.8925 70.7193 56.827 70.7156 56.7139 70.684L56.6723 70.739C56.6081 70.8189 56.6359 70.7907 56.543 70.8465L56.3561 70.7778C56.3742 71.1815 56.5497 71.6625 56.6455 72.0595C58.1595 78.3418 63.3802 81.4314 69.6116 81.8564C73.5119 82.1225 79.1039 81.6942 82.0162 78.9959C83.8156 77.3289 84.577 74.5464 85.1067 72.2501C86.2322 67.3706 86.4525 62.5682 85.2237 57.7078C82.0494 59.8329 81.6241 60.5298 77.7145 61.4782C71.7422 62.9273 61.2059 63.2456 57.0253 58.254ZM64.5866 44.3826C61.1027 46.5368 61.178 49.9189 61.1872 53.5148L61.2048 57.1489C61.2383 58.0107 61.2611 58.9914 61.4094 59.8304L61.5597 59.8982C66.917 62.2018 74.8087 61.6078 80.27 59.4392C80.1153 57.8048 80.335 57.3246 80.4066 55.8712C80.4494 55.0039 80.4005 54.1362 80.3969 53.2684C80.3812 49.4115 80.4934 45.5129 76.8106 43.0695C74.0059 43.5653 71.5228 42.4809 69.9828 40.0548C69.9234 39.9614 69.8523 39.7959 69.7759 39.7215L69.6926 39.6667L69.6428 39.6753C68.7095 39.8128 68.4323 39.1743 68.2584 38.5175L67.8423 37.0832C64.8298 39.0075 66.1961 43.1037 64.5866 44.3826ZM17.7895 65.127C18.7403 74.0695 23.9777 78.0515 32.6353 79.7509L34.8705 80.114C35.8158 80.3084 36.9216 80.2339 37.8845 80.2342C43.0686 80.2364 48.2298 79.1078 52.5983 76.1859L56.0152 73.5175L54.8186 69.3465C54.6453 69.6643 53.9833 69.8562 53.6531 70.0264L51.4145 71.1748C43.7508 74.6725 34.4277 74.7184 26.6445 71.5806C26.8216 71.5643 26.9856 71.6375 27.1484 71.564L27.0073 71.289C27.0567 71.2056 27.0823 71.0029 27.127 70.9501C27.3331 70.7065 27.5637 70.8145 27.2411 70.4678L24.4556 69.3529L24.4555 69.344C23.3194 68.7509 22.3233 68.0959 21.3917 67.2093C21.2309 67.1467 21.1191 67.1257 20.9595 67.0967L20.9259 67.2032C20.9494 67.2729 20.9348 67.3136 20.9412 67.3826L20.9533 67.4332C20.9684 67.507 20.9548 67.5662 20.9428 67.6393C20.5258 67.1684 20.1348 66.6434 19.8117 66.1036C19.5841 65.7293 19.382 65.3579 19.2625 64.9337C19.1575 64.5553 18.3817 63.2343 18.3734 64.282L18.407 65.1818L17.7895 65.127ZM17.7895 65.127L18.407 65.1818L18.3734 64.282C18.3817 63.2343 19.1575 64.5553 19.2625 64.9337L19.3148 64.8409C19.1953 64.5818 19.3547 64.5139 19.5703 64.4231C19.67 64.2871 19.7825 64.2036 19.918 64.1048L20.0144 64.0954C20.0902 63.9564 19.9967 63.7182 19.9608 63.5598L19.6284 62.1279C18.3973 56.5253 20.7834 53.3715 25.4631 50.4156C26.4792 49.7739 27.4995 49.1948 28.6439 48.7357L28.6397 47.2309C26.4658 47.8739 25.215 48.1614 23.233 49.4042C17.8283 52.7932 16.7814 56.9328 17.4906 63.0951C17.5687 63.7739 17.7336 64.4468 17.7895 65.127ZM27.9264 16.0314C23.8197 17.5318 19.5605 19.8053 17.6306 23.95C16.2873 26.8348 16.1739 30.4032 17.2984 33.3857C19.0409 38.0072 23.1692 40.9637 27.6856 42.5322C28.0033 42.6425 28.3955 42.8207 28.7362 42.7573C28.1784 41.9745 27.203 41.5892 26.4391 41.0286C24.2181 39.3989 21.8892 37.6606 20.2672 35.4025C19.0419 33.6968 17.2719 30.4354 17.6508 28.2407C18.4736 23.4765 22.1414 19.6472 26.1402 17.2072C26.4241 17.034 27.8853 16.3651 28.0122 16.1375L27.9264 16.0314ZM46.0098 47.4231L46.0087 48.6289C46.0089 48.8179 45.9831 49.0467 46.0308 49.2275L47.4366 49.3742C50.8892 49.9056 54.4533 51.2489 56.7514 53.9737L57.5733 53.4803C55.3434 50.4489 52.0241 48.8039 48.4395 47.8387C47.6922 47.6376 46.8239 47.4134 46.0098 47.4231ZM56.0275 56.3956C55.4 57.9762 55.5019 59.6264 55.5034 61.297L55.5433 64.8226C55.5628 65.2095 55.6394 65.5878 55.663 65.9712C55.7844 67.9462 56.0031 68.952 56.3561 70.7778L56.543 70.8465C56.6359 70.7907 56.6081 70.8189 56.6723 70.739L56.7139 70.684C56.827 70.7156 56.8925 70.7193 57.0083 70.6995C57.2609 70.0578 56.8423 67.914 56.8175 67.1367L56.8931 61.0917C56.9303 60.137 56.9202 59.2065 57.0253 58.254C57.0148 58.009 57.0345 57.9857 56.8664 57.8129L56.8259 57.8137C56.3253 57.3692 56.2148 57.0195 56.0275 56.3956ZM19.2625 64.9337C19.382 65.3579 19.5841 65.7293 19.8117 66.1036C20.1348 66.6434 20.5258 67.1684 20.9428 67.6393C20.9548 67.5662 20.9684 67.507 20.9533 67.4332L20.9412 67.3826C20.9348 67.3136 20.9494 67.2729 20.9259 67.2032L20.9595 67.0967C21.1191 67.1257 21.2309 67.1467 21.3917 67.2093C20.7944 66.57 20.3392 65.9325 19.895 65.1826C19.9073 65.0693 19.7009 64.6817 19.6772 64.5172L19.5703 64.4231C19.3547 64.5139 19.1953 64.5818 19.3148 64.8409L19.2625 64.9337Z" fill="black"/>
<path d="M82.815 54.061C83.9334 54.639 84.6372 55.2799 85.0203 56.522L85.1875 57.2262C84.2083 57.3929 83.5575 57.7442 82.6998 58.2473C82.8795 56.9432 83.1867 55.354 82.815 54.061Z" fill="#5160F3"/>
<path d="M82.6998 58.2473C82.192 58.6229 81.637 58.8895 81.0725 59.1665C81.5231 57.7095 81.6045 54.9695 81.5859 53.4326L82.815 54.0611C83.1867 55.354 82.8795 56.9432 82.6998 58.2473Z" fill="#DDDBFF"/>
<path d="M56.0275 56.3958C56.378 55.3821 57.6425 54.6811 58.545 54.2396L59.5252 53.8049C60.4036 53.4629 60.1562 53.4188 60.1594 54.5169L60.1687 56.6535C60.1727 57.0124 60.235 57.375 60.2545 57.7346L60.2422 59.4643C60.052 59.3222 59.8997 59.2805 59.6923 59.1813C59.0328 58.8661 57.4158 57.4663 56.8664 57.8132L56.8259 57.814C56.3253 57.3694 56.2148 57.0197 56.0275 56.3958Z" fill="#5160F3"/>
<path d="M27.2411 70.4678C29.518 71.16 31.7823 71.5964 34.1473 71.854L35.4055 72.0036C38.1305 72.1928 41.0002 72.0397 43.6941 71.6476C47.8114 71.0486 51.8855 69.8426 54.4839 66.3589L54.8186 69.3465C54.6453 69.6644 53.9833 69.8562 53.6531 70.0264L51.4145 71.1748C43.7508 74.6725 34.4277 74.7184 26.6445 71.5806C26.8216 71.5644 26.9856 71.6375 27.1484 71.564L27.0073 71.289C27.0567 71.2056 27.0823 71.0029 27.127 70.9501C27.3331 70.7065 27.5638 70.8145 27.2411 70.4678Z" fill="url(#paint0_linear_271_2544)"/>
<path d="M69.6927 39.6669L69.6938 39.6233C69.6948 39.0946 69.3373 38.4791 69.1848 37.967C68.4972 35.6597 68.8536 36.0005 70.4681 34.6686C71.458 33.8519 72.3813 32.9553 73.2141 31.9785L74.5441 30.2899C74.6522 30.1413 74.9955 29.5299 75.1178 29.4731C76.2478 32.3072 78.0722 40.0805 77.0711 42.3919C76.982 42.5974 76.7856 42.8325 76.8106 43.0571C74.0059 43.5655 71.5228 42.4811 69.9828 40.055C69.9234 39.9616 69.8523 39.7961 69.7759 39.7217L69.6927 39.6669Z" fill="#FF5D5B"/>
<path d="M29.5908 44.0312C32.1208 44.7095 34.5608 44.8658 37.1953 44.8606L41.2427 44.6919C42.4138 44.6034 43.6728 44.528 44.8211 44.2864L44.8644 48.1083C44.8623 48.7106 44.9275 49.3955 44.8306 49.985L44.567 49.9464C40.1347 49.2645 36.8486 48.9706 32.5119 49.7022L29.6963 50.3034C29.6441 50.0537 29.6755 49.7631 29.6758 49.5064L29.5908 44.0312Z" fill="#5160F3"/>
<path d="M17.7895 65.127L18.407 65.1819L18.3734 64.282C18.3817 63.2344 19.1575 64.5553 19.2625 64.9338C19.382 65.358 19.5841 65.7294 19.8117 66.1036C20.1348 66.6434 20.5258 67.1685 20.9428 67.6394C20.9548 67.5663 20.9684 67.507 20.9533 67.4333L20.9413 67.3827C20.9348 67.3136 20.9494 67.273 20.9259 67.2033L20.9595 67.0967C21.1191 67.1258 21.2309 67.1467 21.3917 67.2094C22.3233 68.0959 23.3194 68.751 24.4555 69.3441L24.4556 69.353L27.2411 70.4678C27.5638 70.8145 27.3331 70.7066 27.127 70.9502C27.0823 71.003 27.0567 71.2056 27.0073 71.2891L27.1484 71.5641C26.9856 71.6375 26.8216 71.5644 26.6445 71.5806C34.4277 74.7185 43.7508 74.6725 51.4145 71.1749L53.6531 70.0264C53.9833 69.8563 54.6453 69.6644 54.8186 69.3466L56.0152 73.5175L52.5983 76.1859C48.2298 79.1078 43.0686 80.2364 37.8845 80.2342C36.9216 80.2339 35.8158 80.3085 34.8705 80.1141L32.6353 79.751C23.9777 78.0516 18.7403 74.0695 17.7895 65.127ZM20.9428 67.6394C21.4841 68.2164 23.1725 70.0263 23.9236 70.2441L24.2117 70.2849C24.3289 70.2911 24.4041 70.3422 24.5117 70.3225L24.6166 70.2075C24.6002 70.0181 24.7422 70.1188 24.6483 69.6467L24.6358 69.5799C24.5852 69.528 24.545 69.4786 24.5023 69.4192L24.4556 69.353L24.4555 69.3441C23.3194 68.751 22.3233 68.0959 21.3917 67.2094C21.2309 67.1467 21.1191 67.1258 20.9595 67.0967L20.9259 67.2033C20.9494 67.273 20.9348 67.3136 20.9413 67.3827L20.9533 67.4333C20.9684 67.507 20.9548 67.5663 20.9428 67.6394ZM24.4556 69.353L24.5023 69.4192C24.545 69.4786 24.5852 69.528 24.6358 69.5799L24.6483 69.6467C24.7422 70.1188 24.6002 70.0181 24.6166 70.2075L24.5117 70.3225C24.4041 70.3422 24.3289 70.2911 24.2117 70.2849L23.9236 70.2441C24.7123 70.8167 25.7409 71.2206 26.6445 71.5806C26.8216 71.5644 26.9856 71.6375 27.1484 71.5641L27.0073 71.2891C27.0567 71.2056 27.0823 71.003 27.127 70.9502C27.3331 70.7066 27.5638 70.8145 27.2411 70.4678L24.4556 69.353Z" fill="#5160F3"/>
<path d="M64.5866 44.3829C66.1961 43.104 64.8298 39.0077 67.8423 37.0835L68.2584 38.5177C68.4323 39.1746 68.7095 39.813 69.6428 39.6755L69.6927 39.6669L69.7759 39.7218C69.8523 39.7962 69.9234 39.9616 69.9828 40.0551C71.5228 42.4812 74.0059 43.5655 76.8106 43.0697C80.4934 45.5132 80.3812 49.4118 80.3969 53.2687C80.4005 54.1365 80.4494 55.0041 80.4066 55.8715C80.335 57.3249 80.1153 57.8051 80.27 59.4394C74.8088 61.608 66.917 62.2021 61.5597 59.8985L61.4094 59.8307C61.2611 58.9916 61.2383 58.011 61.2048 57.1491L61.1872 53.5151C61.178 49.9191 61.1027 46.5371 64.5866 44.3829ZM64.5866 44.3829C61.1027 46.5371 61.178 49.9191 61.1797 53.5151C61.5931 53.4805 61.9466 53.5265 62.3622 53.4255C62.6033 52.7726 62.6533 51.9843 62.8259 51.3012L64.205 46.0451C64.3302 45.5415 64.6089 44.8921 64.5866 44.3829Z" fill="#FFD759"/>
<path d="M57.0253 58.2543C61.2059 63.2458 71.7422 62.9275 77.7145 61.4785C81.6241 60.53 82.0494 59.8332 85.2238 57.708C86.4525 62.5685 86.2322 67.3708 85.1067 72.2504C84.577 74.5466 83.8156 77.3291 82.0162 78.9961C79.1039 81.6944 73.5119 82.1227 69.6116 81.8566C63.3802 81.4316 58.1595 78.3421 56.6455 72.0597C56.5497 71.6627 56.3742 71.1818 56.3561 70.778L56.543 70.8468C56.6359 70.791 56.6081 70.8191 56.6723 70.7393L56.7139 70.6843C56.827 70.7158 56.8925 70.7196 57.0083 70.6997C57.2609 70.058 56.8423 67.9143 56.8175 67.1369L56.8931 61.0919C56.9303 60.1372 56.9202 59.2068 57.0253 58.2543ZM75.5752 70.7535C76.8683 72.526 77.535 71.8349 78.6369 70.4677L78.6209 70.3641C78.2473 70.0832 77.9419 69.8652 77.4903 69.7257L77.4305 69.7069C76.7675 69.5119 75.7825 70.0405 75.5842 70.7102L75.5752 70.7535ZM64.4434 70.5558L64.4566 70.5968C64.6453 71.1555 65.4778 72.0469 66.1578 71.7686C66.5733 71.5985 67.9891 70.1204 66.8995 70.0079C65.7648 69.6671 65.1347 69.2877 64.4434 70.5558Z" fill="#5160F3"/>
<path d="M64.4434 70.5558L64.4267 70.5607C63.6445 70.8224 62.6734 69.7565 64.0438 68.7568C66.0503 67.2932 67.9727 69.2757 66.8995 70.0079C65.7648 69.6671 65.1347 69.2877 64.4434 70.5558Z" fill="black"/>
<path d="M75.5752 70.7537L75.5195 70.8162C74.862 70.8838 74.3245 70.2262 74.6705 69.634C76.152 67.0965 80.2586 68.8476 79.0334 70.2395C78.9134 70.3759 78.7859 70.3555 78.6209 70.3643C78.2473 70.0834 77.9419 69.8654 77.4903 69.7259L77.4305 69.7071C76.7675 69.5121 75.7825 70.0407 75.5842 70.7104L75.5752 70.7537Z" fill="black"/>
<path d="M74.23 73.5595C74.2959 73.5468 74.3712 73.5462 74.4384 73.541C75.7452 74.351 74.1517 75.3873 73.3903 75.7359C71.618 76.5476 69.8464 76.447 68.045 75.7798C67.4552 75.4452 67.3389 74.6296 67.8711 74.2663C68.3883 74.3629 68.9036 74.6804 69.4261 74.824C70.6917 75.172 72.0503 75.1757 73.155 74.3984C73.5136 74.146 73.798 73.7977 74.1841 73.5837L74.23 73.5595Z" fill="black"/>
<path d="M46.0114 47.4233L46.0088 48.6291C46.0089 48.8182 45.9831 49.0469 46.0308 49.2277L47.4366 49.3744C50.8892 49.9058 54.4533 51.2491 56.7514 53.974C54.0081 55.9469 54.3117 59.1377 54.4186 62.1338L54.485 65.408C53.8558 65.7977 53.3159 66.3046 52.7481 66.7758C48.4559 70.3382 43.2586 70.8719 37.9195 70.8693C32.3781 70.8666 25.8741 70.0787 21.6653 66.1699C21.122 65.6654 20.7177 65.0313 20.1703 64.5437C19.9773 64.4682 19.8784 64.4755 19.6772 64.5174L19.5703 64.4233C19.67 64.2874 19.7825 64.2038 19.918 64.1051L20.0144 64.0957C20.0902 63.9566 19.9967 63.7185 19.9608 63.5601L19.6284 62.1282C18.3973 56.5255 20.7834 53.3718 25.4631 50.4158C26.4792 49.7741 27.4995 49.1951 28.6125 48.736C28.5477 49.4268 28.2403 50.6022 28.7017 51.1779C29.173 51.7657 33.642 50.7763 34.467 50.6965C36.4994 50.4996 38.7277 50.3447 40.7716 50.5463L44.6752 51.1238C45.2683 51.194 45.8908 51.1965 45.9628 50.4543L46.0114 47.4233Z" fill="#FF5D5B"/>
<path d="M19.918 64.105L20.1703 64.5436C19.9773 64.4681 19.8784 64.4755 19.6772 64.5173L19.5703 64.4233C19.67 64.2873 19.7825 64.2037 19.918 64.105Z" fill="#DA2925"/>
<path d="M27.9264 16.0314C29.1978 15.4808 30.6678 15.2148 32.0341 15.0122C39.0991 13.9643 46.1758 15.38 51.9211 19.6571C56.5383 23.0943 59.1475 28.8496 56.8664 34.4781C54.182 41.1015 46.9423 43.2974 40.4166 43.6599L36.2216 43.707C33.8827 43.7062 31.3955 43.7148 29.1647 42.8921C29.0416 42.8467 28.8631 42.7451 28.7363 42.7573C28.1784 41.9745 27.203 41.5892 26.4391 41.0285C24.2181 39.3989 21.8892 37.6606 20.2672 35.4024C19.0419 33.6968 17.2719 30.4354 17.6508 28.2407C18.4736 23.4765 22.1414 19.6471 26.1402 17.2071C26.4241 17.034 27.8853 16.3651 28.0122 16.1374L27.9264 16.0314Z" fill="#0FC2AA"/>
<path d="M35.852 28.5308C36.5562 28.6256 36.3798 29.4128 35.9556 29.7854C35.3953 30.2775 34.6298 30.635 33.9961 31.0304C33.0208 31.6392 31.4816 33.0204 30.2789 32.934L30.0537 32.8076C28.9966 32.0479 30.4141 31.3211 30.9934 30.9345C32.4417 29.9683 34.0769 28.7665 35.852 28.5308Z" fill="black"/>
<path d="M28.603 21.0693C29.0264 21.0962 29.692 21.6065 29.4219 22.0787C29.2827 22.322 29.0214 22.522 28.8091 22.7009L27.7708 23.5879C26.9355 24.3704 26.0966 25.2192 25.3709 26.1061C24.9706 26.5953 24.6072 27.4531 23.9823 27.6886L23.8525 27.7323C22.8725 27.8112 22.8262 26.8437 23.2331 26.2206C23.9473 25.127 27.2172 21.3587 28.603 21.0693Z" fill="black"/>
<path d="M32.6803 22.0947C33.8547 21.725 33.5989 23.1868 33.3203 23.8013C32.4695 25.6774 29.2316 27.9908 27.6909 29.338L26.0069 30.8511C25.5811 31.2536 25.1333 31.8724 24.5738 32.0883C23.747 32.1016 23.2706 31.436 23.878 30.7139C24.3283 30.1786 24.9505 29.7143 25.4639 29.2343L28.097 26.8164C29.3575 25.7055 30.8952 24.5775 31.8888 23.2043C32.1591 22.8305 32.3478 22.4204 32.6803 22.0947Z" fill="black"/>
<defs>
<linearGradient id="paint0_linear_271_2544" x1="40.7396" y1="73.8468" x2="40.9637" y2="66.2074" gradientUnits="userSpaceOnUse">
<stop stop-color="#B4B3FF"/>
<stop offset="1" stop-color="#DED6FE"/>
</linearGradient>
</defs>
</svg>
